<svg xmlns="http://www.w3.org/2000/svg" viewBox="0 0 64 64">
  <defs>
    <linearGradient id="g" x1="0" y1="0" x2="1" y2="1">
      <stop offset="0" stop-color="#ff9a5c"/><stop offset="55%" stop-color="#E97132"/><stop offset="1" stop-color="#c85a1f"/>
    </linearGradient>
  </defs>
  <rect width="64" height="64" rx="16" fill="url(#g)"/>
  <g fill="none" stroke="#fff" stroke-width="4.4" stroke-linecap="round" stroke-linejoin="round">
    <path d="M17 33h9M21.5 28.5v9"/>
    <path d="M15.5 19h33a8 8 0 0 1 7.87 6.56l2.4 13.3A8 8 0 0 1 51 48c-2.9 0-4.5-1.6-6.1-3.5l-1.9-2.2a5.3 5.3 0 0 0-4-1.8H25a5.3 5.3 0 0 0-4 1.8l-1.9 2.2C17.5 46.4 15.9 48 13 48a8 8 0 0 1-7.87-9.14l2.4-13.3A8 8 0 0 1 15.5 19Z" transform="scale(0.82) translate(7 5)"/>
  </g>
  <circle cx="41" cy="30" r="3" fill="#fff"/><circle cx="46.5" cy="35.5" r="3" fill="#fff"/>
</svg>
